<?xml version="1.0" encoding="utf-8"?>
<!-- Generator: Adobe Illustrator 23.0.1, SVG Export Plug-In . SVG Version: 6.00 Build 0)  -->
<svg version="1.1" id="Layer_5" xmlns="http://www.w3.org/2000/svg" xmlns:xlink="http://www.w3.org/1999/xlink" x="0px" y="0px"
	 viewBox="0 0 308.457 139.093" style="enable-background:new 0 0 308.457 139.093;" xml:space="preserve">
<style type="text/css">
	.st0{display:none;}
	.st1{display:inline;fill:#FFFFFF;}
	.st2{display:inline;fill:#DC5726;}
	.st3{display:inline;fill:#4A6E9C;}
	.st4{fill:#FFFFFF;}
</style>
<g class="st0">
	<rect x="-381" y="-330.978" class="st1" width="841.89" height="297.64"/>
	<rect x="-381" y="-33.338" class="st2" width="420.945" height="297.64"/>
	<rect x="39.945" y="-33.338" class="st3" width="420.945" height="297.64"/>
</g>
<g>
	<g>
		<g>
			<g>
				<path class="st4" d="M158.864,23.761h-17.473c0-7.642,0-15.306,0-22.942h17.011v4.685h-11.989v4.429h11.302v4.491h-11.302v4.62
					h12.45V23.761z"/>
			</g>
		</g>
		<g>
			<g>
				<path class="st4" d="M176.488,6.356c-1.277-1.342-3.503-1.936-5.309-1.936c-2.259,0-4.094,0.957-4.094,2.524
					c0,2.099,1.995,2.49,4.941,2.757c4.53,0.394,8.823,2.133,8.823,7.439c0,5.109-4.721,7.341-9.67,7.372
					c-3.97,0.034-8.092-1.505-10.025-4.716l3.05-3.179c1.767,2.259,4.684,3.25,7.009,3.25c2.715,0,4.583-1.092,4.583-2.726
					c0.031-1.936-1.505-2.817-4.617-3.081c-4.848-0.461-9.181-1.674-9.108-7.079C162.103,2.425,166.427,0,171.148,0
					c3.539,0,6.184,0.785,8.553,3.54L176.488,6.356z"/>
			</g>
		</g>
		<g>
			<g>
				<path class="st4" d="M197.956,6.356c-1.277-1.342-3.517-1.936-5.321-1.936c-2.265,0-4.088,0.957-4.088,2.524
					c0,2.099,1.995,2.49,4.941,2.757c4.536,0.394,8.818,2.133,8.818,7.439c0,5.109-4.713,7.341-9.67,7.372
					c-3.959,0.034-8.095-1.505-10.025-4.716l3.056-3.179c1.764,2.259,4.69,3.25,7,3.25c2.724,0,4.595-1.092,4.595-2.726
					c0.031-1.936-1.503-2.817-4.626-3.081c-4.848-0.461-9.169-1.674-9.108-7.079C183.562,2.425,187.881,0,192.608,0
					c3.545,0,6.196,0.785,8.55,3.54L197.956,6.356z"/>
			</g>
		</g>
		<g>
			<g>
				<path class="st4" d="M223.304,23.761h-17.458c0-7.642,0-15.306,0-22.942h17.014v4.685h-12.006v4.429h11.311v4.491h-11.311v4.62
					h12.45V23.761z"/>
			</g>
		</g>
		<g>
			<g>
				<path class="st4" d="M154.97,36.456c-1.283-1.337-3.512-1.927-5.318-1.927c-2.257,0-4.091,0.948-4.091,2.521
					c0,2.099,1.997,2.493,4.941,2.755c4.53,0.388,8.821,2.127,8.821,7.439c0,5.112-4.721,7.341-9.67,7.372
					c-3.97,0.034-8.095-1.508-10.028-4.718l3.05-3.179c1.77,2.262,4.688,3.247,7.02,3.247c2.707,0,4.578-1.083,4.578-2.721
					c0.031-1.933-1.503-2.822-4.62-3.084c-4.845-0.459-9.178-1.668-9.11-7.079c0.037-4.555,4.358-6.984,9.088-6.984
					c3.534,0,6.184,0.796,8.542,3.545L154.97,36.456z"/>
			</g>
		</g>
		<g>
			<g>
				<path class="st4" d="M183.432,30.958v12.807c0,6.817-3.798,10.458-9.822,10.655c-6.007,0.194-11.085-3.244-11.085-10.655V30.958
					h5.079v12.807c0,4.099,2.301,6.229,6.035,6.063c3.475-0.231,4.716-2.617,4.716-6.063V30.958H183.432z"/>
			</g>
		</g>
		<g>
			<g>
				<path class="st4" d="M208.215,37.939l-7.085,8.908h-0.917l-6.851-8.975v16.026h-5.101V30.958c1.927,0,3.928,0,5.858,0
					l6.685,8.812l6.719-8.812h5.796v22.939h-5.104V37.939z"/>
			</g>
		</g>
		<g>
			<g>
				<path class="st4" d="M238.438,37.939l-7.09,8.908h-0.909l-6.851-8.975v16.026h-5.118V30.958c1.939,0,3.939,0,5.875,0
					l6.688,8.812l6.713-8.812h5.801v22.939h-5.109V37.939z"/>
			</g>
		</g>
		<g>
			<g>
				<path class="st4" d="M266.166,53.861h-17.464c0-7.636,0-15.303,0-22.942h17.005v4.69h-11.991v4.423h11.299v4.488h-11.299v4.62
					h12.45V53.861z"/>
			</g>
		</g>
		<g>
			<g>
				<path class="st4" d="M290.585,53.861h-5.672l-5.881-7.535h-3.697v7.535h-5.115V30.919c3.742,0,7.175,0,10.883,0
					c5.543,0,8.489,3.708,8.489,7.735c-0.031,2.982-0.914,5.635-5.306,7.211l6.3,7.602V53.861z M275.336,35.314v6.688h5.83
					c2.361,0,3.388-1.77,3.388-3.213c-0.039-1.578-1.055-3.475-3.45-3.475H275.336z"/>
			</g>
		</g>
		<g>
			<g>
				<path class="st4" d="M154.97,66.564c-1.283-1.348-3.512-1.936-5.318-1.936c-2.257,0-4.091,0.951-4.091,2.521
					c0,2.099,1.997,2.493,4.941,2.754c4.53,0.394,8.821,2.133,8.821,7.445c0,5.107-4.721,7.335-9.67,7.369
					c-3.97,0.034-8.095-1.505-10.028-4.716l3.05-3.182c1.77,2.262,4.688,3.247,7.02,3.247c2.707,0,4.578-1.086,4.578-2.718
					c0.031-1.938-1.503-2.822-4.62-3.084c-4.845-0.464-9.178-1.671-9.11-7.079c0.037-4.552,4.358-6.981,9.088-6.981
					c3.534,0,6.184,0.791,8.542,3.539L154.97,66.564z"/>
			</g>
		</g>
		<g>
			<g>
				<path class="st4" d="M182.622,81.181c-2.369,2.321-5.414,3.376-8.823,3.376c-8.748,0-12.225-5.641-12.256-11.899
					c-0.031-5.931,3.838-12.155,12.256-12.155c3.157,0,6.069,1.21,8.429,3.534l-3.213,3.179c-1.384-1.342-3.376-1.899-5.216-1.899
					c-5.208,0-7.237,4.029-7.209,7.369c0.037,3.345,1.843,7.149,7.209,7.149c1.84,0,4.265-0.819,5.641-2.197L182.622,81.181z"/>
			</g>
		</g>
		<g>
			<g>
				<path class="st4" d="M201.068,83.994v-9.074h-10.27v9.074h-5.104V61.055h5.104v9.175h10.27v-9.175h5.042v22.939H201.068z"/>
			</g>
		</g>
		<g>
			<g>
				<path class="st4" d="M222.333,84.521c-7.347,0-12.386-4.555-12.386-12.023c0-7.479,5.039-12.036,12.386-12.036
					c7.338,0,12.394,4.558,12.394,12.036C234.727,79.965,229.671,84.521,222.333,84.521z M222.333,65.053
					c-4.353,0-7.377,3.281-7.377,7.445c0,4.285,3.025,7.397,7.377,7.397c4.451,0,7.369-3.143,7.369-7.397
					C229.702,68.306,226.784,65.053,222.333,65.053z"/>
			</g>
		</g>
		<g>
			<g>
				<path class="st4" d="M249.642,84.521c-7.346,0-12.402-4.555-12.402-12.023c0-7.479,5.056-12.036,12.402-12.036
					c7.329,0,12.374,4.558,12.374,12.036C262.016,79.965,256.971,84.521,249.642,84.521z M249.642,65.053
					c-4.367,0-7.383,3.281-7.383,7.445c0,4.285,3.016,7.397,7.383,7.397c4.445,0,7.372-3.143,7.372-7.397
					C257.014,68.306,254.087,65.053,249.642,65.053z"/>
			</g>
		</g>
		<g>
			<g>
				<path class="st4" d="M270.966,61.024v18.252h11.468v4.687h-16.586V61.024H270.966z"/>
			</g>
		</g>
		<g>
			<g>
				<g>
					<path class="st4" d="M142.843,98.912c0,1.834-2.757,1.834-2.757,0C140.086,97.111,142.843,97.111,142.843,98.912z
						 M140.351,101.993v10.664h2.212v-10.664H140.351z"/>
				</g>
			</g>
			<g>
				<g>
					<path class="st4" d="M153.619,112.656v-5.683c0-1.835-1.03-3.064-2.864-3.064c-1.761,0-2.971,1.443-2.971,3.191v5.557h-2.209
						v-10.644h2.017l0.13,1.556c1.013-1.142,2.189-1.705,3.57-1.705c2.591,0,4.572,1.837,4.572,5.087v5.706H153.619z"/>
				</g>
			</g>
			<g>
				<g>
					<path class="st4" d="M173.419,100.921c-0.706-1.033-2.141-1.66-3.72-1.685c-2.017,0-3.486,0.844-3.486,2.29
						c0,1.463,1.683,1.871,3.655,2.155c3.098,0.425,6.052,1.286,6.052,4.668c-0.017,3.382-3.101,4.651-6.238,4.651
						c-2.884,0-5.095-0.883-6.48-3.424l1.806-1.204c1.08,1.829,2.949,2.473,4.69,2.473c1.804,0,3.818-0.602,3.818-2.496
						c0-1.64-1.745-2.2-3.858-2.476c-2.991-0.413-5.838-1.165-5.838-4.392c-0.017-3.123,3.103-4.333,5.813-4.333
						c2.178,0,4.344,0.518,5.622,2.543L173.419,100.921z"/>
				</g>
			</g>
			<g>
				<g>
					<path class="st4" d="M188.548,107.356c0,3.148-2.183,5.517-5.515,5.517c-3.317,0-5.467-2.369-5.467-5.517
						c0-3.118,2.175-5.534,5.467-5.534C186.308,101.821,188.548,104.238,188.548,107.356z M179.78,107.356
						c0,1.896,1.227,3.452,3.253,3.452c2.046,0,3.275-1.556,3.275-3.452c0-1.871-1.342-3.492-3.275-3.492
						C181.007,103.864,179.78,105.485,179.78,107.356z"/>
				</g>
			</g>
			<g>
				<g>
					<path class="st4" d="M199.858,111.281c-1.19,1.156-2.504,1.657-4.035,1.657c-3.044,0-5.599-1.922-5.599-5.582
						c0-3.655,2.521-5.58,5.599-5.58c1.469,0,2.695,0.459,3.832,1.576l-1.413,1.488c-0.664-0.647-1.55-0.951-2.394-0.951
						c-1.916,0-3.407,1.359-3.407,3.467c0,2.239,1.559,3.427,3.382,3.427c0.895,0,1.832-0.279,2.521-0.988L199.858,111.281z"/>
				</g>
			</g>
			<g>
				<g>
					<path class="st4" d="M204.318,98.912c0,1.834-2.757,1.834-2.757,0C201.56,97.111,204.318,97.111,204.318,98.912z
						 M201.816,101.993v10.664h2.223v-10.664H201.816z"/>
				</g>
			</g>
			<g>
				<g>
					<path class="st4" d="M215.569,102.038h2.155c0,3.534,0,7.09,0,10.618h-2.116l-0.101-1.728
						c-0.715,1.362-2.346,2.009-3.666,2.009c-3.092,0.02-5.439-1.984-5.439-5.599c0-3.554,2.431-5.54,5.475-5.54
						c1.514,0,2.963,0.709,3.63,1.919L215.569,102.038z M208.614,107.339c0,2.195,1.547,3.525,3.444,3.525
						c4.592,0,4.592-7.037,0-7.037C210.161,103.828,208.614,105.164,208.614,107.339z"/>
				</g>
			</g>
			<g>
				<g>
					<path class="st4" d="M223.014,97.595v15.061H220.8V97.595H223.014z"/>
				</g>
			</g>
			<g>
				<g>
					<path class="st4" d="M240.863,100.921c-0.715-1.033-2.164-1.66-3.731-1.685c-2.031,0-3.483,0.844-3.483,2.29
						c0,1.463,1.677,1.871,3.658,2.155c3.101,0.425,6.049,1.286,6.049,4.668c-0.017,3.382-3.106,4.651-6.243,4.651
						c-2.878,0-5.112-0.883-6.477-3.424l1.804-1.204c1.063,1.829,2.946,2.473,4.693,2.473c1.801,0,3.807-0.602,3.807-2.496
						c0-1.64-1.747-2.2-3.846-2.476c-3.005-0.413-5.841-1.165-5.841-4.392c-0.023-3.123,3.106-4.333,5.813-4.333
						c2.172,0,4.358,0.518,5.619,2.543L240.863,100.921z"/>
				</g>
			</g>
			<g>
				<g>
					<path class="st4" d="M254.644,111.281c-1.184,1.156-2.504,1.657-4.035,1.657c-3.055,0-5.593-1.922-5.593-5.582
						c0-3.655,2.515-5.58,5.593-5.58c1.458,0,2.696,0.459,3.835,1.576l-1.427,1.488c-0.664-0.647-1.542-0.951-2.386-0.951
						c-1.913,0-3.393,1.359-3.393,3.467c0,2.239,1.542,3.427,3.371,3.427c0.9,0,1.834-0.279,2.518-0.988L254.644,111.281z"/>
				</g>
			</g>
			<g>
				<g>
					<path class="st4" d="M259.098,98.912c0,1.834-2.755,1.834-2.755,0C256.344,97.111,259.098,97.111,259.098,98.912z
						 M256.6,101.993v10.664h2.223v-10.664H256.6z"/>
				</g>
			</g>
			<g>
				<g>
					<path class="st4" d="M263.485,108.174c0.197,1.621,1.53,2.67,3.455,2.67c1.086,0,2.442-0.408,3.095-1.137l1.435,1.395
						c-1.092,1.21-2.932,1.812-4.558,1.812c-3.492,0-5.734-2.22-5.734-5.622c0-3.233,2.262-5.537,5.582-5.537
						c3.421,0,5.756,2.091,5.34,6.418H263.485z M269.967,106.303c-0.13-1.68-1.356-2.563-3.134-2.563
						c-1.638,0-2.966,0.883-3.309,2.563H269.967z"/>
				</g>
			</g>
			<g>
				<g>
					<path class="st4" d="M282.392,112.656v-5.683c0-1.835-1.021-3.064-2.859-3.064c-1.773,0-2.977,1.443-2.977,3.191v5.557h-2.217
						v-10.644h2.029l0.127,1.556c1.013-1.142,2.203-1.705,3.562-1.705c2.6,0,4.581,1.837,4.581,5.087v5.706H282.392z"/>
				</g>
			</g>
			<g>
				<g>
					<path class="st4" d="M296.449,111.281c-1.193,1.156-2.515,1.657-4.035,1.657c-3.056,0-5.602-1.922-5.602-5.582
						c0-3.655,2.518-5.58,5.602-5.58c1.457,0,2.684,0.459,3.835,1.576l-1.426,1.488c-0.664-0.647-1.553-0.951-2.397-0.951
						c-1.913,0-3.405,1.359-3.405,3.467c0,2.239,1.564,3.427,3.393,3.427c0.9,0,1.84-0.279,2.507-0.988L296.449,111.281z"/>
				</g>
			</g>
			<g>
				<g>
					<path class="st4" d="M299.797,108.174c0.205,1.621,1.536,2.67,3.483,2.67c1.075,0,2.425-0.408,3.075-1.137l1.438,1.395
						c-1.095,1.21-2.926,1.812-4.575,1.812c-3.489,0-5.72-2.22-5.72-5.622c0-3.233,2.265-5.537,5.579-5.537
						c3.416,0,5.746,2.091,5.332,6.418H299.797z M306.291,106.303c-0.146-1.68-1.362-2.563-3.151-2.563
						c-1.612,0-2.949,0.883-3.292,2.563H306.291z"/>
				</g>
			</g>
			<g>
				<g>
					<path class="st4" d="M146.439,119.083c5.157,0,7.498,3.68,7.563,7.408c0.079,3.809-2.29,7.67-7.563,7.67
						c-1.806,0-3.9,0-5.712,0v-15.078H146.439z M143.119,131.828h3.32c3.683,0,5.233-2.712,5.171-5.357
						c-0.068-2.541-1.618-5.084-5.171-5.084h-3.32V131.828z"/>
				</g>
			</g>
			<g>
				<g>
					<path class="st4" d="M164.891,123.542h2.152c0,3.531,0,7.085,0,10.619h-2.113l-0.107-1.728c-0.7,1.356-2.349,2.009-3.663,2.009
						c-3.089,0.017-5.439-1.989-5.439-5.602c0-3.551,2.428-5.534,5.484-5.534c1.508,0,2.949,0.706,3.618,1.913L164.891,123.542z
						 M157.933,128.84c0,2.192,1.559,3.531,3.452,3.531c4.586,0,4.586-7.045,0-7.045
						C159.491,125.326,157.933,126.668,157.933,128.84z"/>
				</g>
			</g>
			<g>
				<g>
					<path class="st4" d="M173.467,120.481v3.078h3.095v1.922h-3.117v5.059c0,1.123,0.501,1.747,1.531,1.747
						c0.433,0,0.928-0.152,1.35-0.371l0.653,1.902c-0.732,0.324-1.384,0.473-2.13,0.473c-2.318,0.065-3.621-1.252-3.621-3.751
						v-5.059h-2.054v-1.922h2.054v-2.842L173.467,120.481z"/>
				</g>
			</g>
			<g>
				<g>
					<path class="st4" d="M187.321,123.542h2.144c0,3.531,0,7.085,0,10.619h-2.105l-0.101-1.728
						c-0.706,1.356-2.355,2.009-3.663,2.009c-3.1,0.017-5.447-1.989-5.447-5.602c0-3.551,2.431-5.534,5.487-5.534
						c1.508,0,2.96,0.706,3.624,1.913L187.321,123.542z M180.357,128.84c0,2.192,1.564,3.531,3.458,3.531
						c4.583,0,4.583-7.045,0-7.045C181.921,125.326,180.357,126.668,180.357,128.84z"/>
				</g>
			</g>
			<g>
				<g>
					<path class="st4" d="M207.995,130.993h-8.168l-1.426,3.168h-2.56l6.758-15.078h2.639l6.758,15.078h-2.566L207.995,130.993z
						 M203.91,121.623l-3.174,7.175h6.364L203.91,121.623z"/>
				</g>
			</g>
			<g>
				<g>
					<path class="st4" d="M221.714,134.161v-5.686c0-1.832-1.027-3.061-2.859-3.061c-1.761,0-2.968,1.443-2.968,3.191v5.557h-2.214
						v-10.644h2.017l0.135,1.556c1.013-1.142,2.195-1.705,3.562-1.705c2.597,0,4.572,1.832,4.572,5.084v5.709H221.714z"/>
				</g>
			</g>
			<g>
				<g>
					<path class="st4" d="M235.307,123.542h2.152c0,3.531,0,7.085,0,10.619h-2.099l-0.107-1.728
						c-0.709,1.356-2.352,2.009-3.669,2.009c-3.095,0.017-5.436-1.989-5.436-5.602c0-3.551,2.425-5.534,5.487-5.534
						c1.505,0,2.954,0.706,3.618,1.913L235.307,123.542z M228.357,128.84c0,2.192,1.55,3.531,3.452,3.531
						c4.575,0,4.575-7.045,0-7.045C229.907,125.326,228.357,126.668,228.357,128.84z"/>
				</g>
			</g>
			<g>
				<g>
					<path class="st4" d="M242.763,119.105v15.056h-2.209v-15.056H242.763z"/>
				</g>
			</g>
			<g>
				<g>
					<path class="st4" d="M256.029,123.542l-6.702,15.548h-2.454l2.2-5.081l-4.243-10.467h2.583l1.818,5.017l1.063,3.019
						l1.137-2.974l2.121-5.062H256.029z"/>
				</g>
			</g>
			<g>
				<g>
					<path class="st4" d="M264.335,126.148c-0.838-0.776-1.739-0.99-2.797-0.99c-1.359-0.022-2.262,0.428-2.262,1.272
						c0.034,0.88,0.951,1.224,2.304,1.353c1.958,0.175,4.524,0.605,4.505,3.337c-0.023,1.981-1.773,3.362-4.53,3.362
						c-1.722,0-3.438-0.388-4.828-1.964l1.153-1.564c0.985,1.092,2.471,1.545,3.725,1.564c1.052,0,2.24-0.383,2.262-1.373
						c0.017-0.945-0.889-1.314-2.465-1.466c-1.992-0.191-4.296-0.838-4.333-3.188c0-2.344,2.445-3.23,4.429-3.23
						c1.632,0,2.909,0.368,4.088,1.424L264.335,126.148z"/>
				</g>
			</g>
			<g>
				<g>
					<path class="st4" d="M270.783,120.416c0,1.834-2.758,1.834-2.758,0C268.026,118.616,270.783,118.616,270.783,120.416z
						 M268.29,123.497v10.664h2.212v-10.664H268.29z"/>
				</g>
			</g>
			<g>
				<g>
					<path class="st4" d="M280.293,126.148c-0.838-0.776-1.747-0.99-2.802-0.99c-1.362-0.022-2.265,0.428-2.265,1.272
						c0.034,0.88,0.954,1.224,2.316,1.353c1.944,0.175,4.524,0.605,4.496,3.337c-0.017,1.981-1.756,3.362-4.513,3.362
						c-1.733,0-3.452-0.388-4.848-1.964l1.156-1.564c0.982,1.092,2.473,1.545,3.725,1.564c1.058,0,2.237-0.383,2.262-1.373
						c0.017-0.945-0.889-1.314-2.454-1.466c-2.003-0.191-4.31-0.838-4.336-3.188c0-2.344,2.431-3.23,4.42-3.23
						c1.64,0,2.904,0.368,4.1,1.424L280.293,126.148z"/>
				</g>
			</g>
		</g>
		<polygon class="st4" points="241.837,8.601 247.059,1.047 247.059,0.819 241.454,0.819 236.367,8.596 236.37,8.601 		"/>
		<polygon class="st4" points="236.37,8.601 236.367,8.596 230.749,0.819 225.141,0.819 225.141,1.047 232.839,12.222 
			225.046,23.598 225.046,23.761 230.718,23.761 236.117,15.697 241.528,23.761 247.194,23.761 247.194,23.598 		"/>
	</g>
	<g>
		<path class="st4" d="M89.788,135.137c0,2.186-1.77,3.956-3.959,3.956h-12.09H16.046H3.959c-2.186,0-3.959-1.77-3.959-3.956
			v-12.093V40.699V28.612c0-2.189,1.772-3.962,3.959-3.962h12.087h69.783c2.071,0,3.748,1.592,3.922,3.616
			c0.011,0.115,0.037,0.228,0.037,0.346v7.915v0.335h-0.037c-0.175,2.023-1.851,3.613-3.922,3.613H79.11v0.014H19.422v0.011
			c-1.941,0.169-3.472,1.725-3.59,3.683v22.824h0.011v3.342h0.037c0.172,2.001,1.815,3.573,3.855,3.607h66.128
			c2.043,0,3.708,1.553,3.925,3.539v0.861v7.082v0.861c-0.217,1.986-1.882,3.539-3.925,3.539h-66.44v0.005
			c-1.941,0.172-3.472,1.725-3.59,3.68v22.95h0.011v3.179h0.037c0.172,1.989,1.804,3.554,3.824,3.601h61.483h4.606h0.076
			c2.169,0.025,3.919,1.784,3.919,3.959V135.137z"/>
		<path class="st4" d="M110.445,49.305h0.076c2.166,0.022,3.916,1.784,3.916,3.956v12.09v33.074v12.093
			c0,2.065-1.581,3.739-3.601,3.922h-0.709H98.377H31.684v-0.005h-3.078c-2.071,0-3.745-1.595-3.922-3.616H24.65v-8.199
			c0-2.071,1.592-3.745,3.613-3.919v-0.039h3.911v-0.006h62.943c1.908-0.214,3.376-1.764,3.489-3.697V68.553
			c-0.247-1.874-1.781-3.312-3.7-3.416H32.883v-0.062h-4.277c-2.071,0-3.745-1.593-3.922-3.616H24.65v-8.196
			c0-2.071,1.592-3.745,3.613-3.922v-0.037h70.129H110.445z"/>
		<path class="st4" d="M98.391,15.835H33.26h-4.654c-2.183,0-3.956-1.772-3.956-3.962V3.959C24.65,1.773,26.422,0,28.606,0h12.087
			h57.701h7.439h4.648c2.189,0,3.956,1.773,3.956,3.959v7.914c0,2.189-1.767,3.962-3.956,3.962h-4.648H98.391z"/>
	</g>
</g>
</svg>
